<svg t="1566885072328" class="icon" viewBox="0 0 1024 1024" version="1.1" xmlns="http://www.w3.org/2000/svg" p-id="10065" width="64" height="64"><path d="M512 1024C232.106667 1024 0 791.893333 0 512S232.106667 0 512 0 1024 232.106667 1024 512 791.893333 1024 512 1024z m300.373333-669.013333c-20.48-20.48-47.786667-20.48-68.266666 0l-273.066667 266.24-136.533333-136.533334c-20.48-20.48-47.786667-20.48-68.266667 0-20.48 20.48-20.48 47.786667 0 68.266667l170.666667 170.666667c20.48 20.48 47.786667 20.48 68.266666 0l307.2-300.373334c20.48-20.48 20.48-47.786667 0-68.266666z" fill="#13CE66" p-id="10066"></path></svg>