<svg t="1566892742111" class="icon" viewBox="0 0 1024 1024" version="1.1" xmlns="http://www.w3.org/2000/svg" p-id="17892" width="64" height="64"><path d="M512 512m-512 0a512 512 0 1 0 1024 0 512 512 0 1 0-1024 0Z" fill="#FE585F" p-id="17893"></path><path d="M615.44 512L770.6 667.16A73.14 73.14 0 0 1 667.16 770.6L512 615.44 356.84 770.6A73.14 73.14 0 0 1 253.4 667.16L408.56 512 253.4 356.84A73.14 73.14 0 0 1 356.84 253.4L512 408.56 667.16 253.4A73.14 73.14 0 0 1 770.6 356.84z" fill="#FFFFFF" p-id="17894"></path></svg>