<svg t="1566895585231" class="icon" viewBox="0 0 1024 1024" version="1.1" xmlns="http://www.w3.org/2000/svg" p-id="19045" width="64" height="64"><path d="M988.16 517.888C988.16 249.0368 774.9632 35.84 506.112 35.84 249.0368 35.84 35.84 249.0368 35.84 517.888c0 257.0752 213.1968 470.272 470.272 470.272 268.8512 0 482.048-213.1968 482.048-470.272z" fill="#10AEFF" p-id="19046"></path><path d="M530.1248 556.032l159.6928 108.032a45.2608 45.2608 0 0 1 14.1312 58.88l20.48-35.4304a45.2608 45.2608 0 0 1-58.0096 17.5616l-179.3024-85.504a40.96 40.96 0 0 1-21.504-24.576 38.656 38.656 0 0 1-13.824-31.3856l12.0832-297.7792a42.8032 42.8032 0 0 1 41.984-40.5504h-29.4912c22.272 0 41.1136 18.2784 41.984 40.5504l11.776 290.2016z" fill="#FFFFFF" p-id="19047"></path></svg>